<?xml version="1.0" encoding="UTF-8"?>
<svg width="820px" height="793px" viewBox="0 0 820 793" version="1.1" xmlns="http://www.w3.org/2000/svg" xmlns:xlink="http://www.w3.org/1999/xlink">
    <!-- Generator: Sketch 63.1 (92452) - https://sketch.com -->
    <title>logo</title>
    <desc>Created with Sketch.</desc>
    <g id="logo" stroke="none" stroke-width="1" fill="none" fill-rule="evenodd">
        <path d="M410,16 C436.509668,16 458,37.490332 458,64 L458,701 C458,727.509668 436.509668,749 410,749 C383.490332,749 362,727.509668 362,701 L362,64 C362,37.490332 383.490332,16 410,16 Z" id="Rectangle" fill="#FFFFFF" fill-rule="nonzero"></path>
        <path d="M55,217 L765,217 C795.375661,217 820,241.624339 820,272 C820,302.375661 795.375661,327 765,327 L55,327 C24.6243388,327 6.05633645e-14,302.375661 5.68434189e-14,272 C5.31234732e-14,241.624339 24.6243388,217 55,217 Z" id="Rectangle" fill="#FFFFFF" fill-rule="nonzero"></path>
        <path d="M651.462462,506.268769 L651.462462,597.56808 C651.462462,611.918647 642.188141,624.62415 628.520355,628.997983 L410,698.926755 L410,698.926755 L196.147856,629.76048 C182.52957,625.355914 173.30311,612.674759 173.30311,598.361901 L173.30311,508.651555 C173.30311,483.991182 153.311928,464 128.651555,464 C103.991182,464 84,483.991182 84,508.651555 L84,656.001668 C84,669.977703 92.8040438,682.438106 105.977386,687.106362 L398.977386,790.937179 C406.108534,793.464254 413.891466,793.464254 421.022614,790.937179 L714.022614,687.106362 C727.195956,682.438106 736,669.977703 736,656.001668 L736,506.268769 C736,482.924373 717.075627,464 693.731231,464 C670.386834,464 651.462462,482.924373 651.462462,506.268769 Z" id="Path" fill="#FFFFFF" fill-rule="nonzero"></path>
        <path d="M274,0 L545,0 C567.09139,-4.05812251e-15 585,17.90861 585,40 C585,62.09139 567.09139,80 545,80 L274,80 C251.90861,80 234,62.09139 234,40 C234,17.90861 251.90861,4.05812251e-15 274,0 Z" id="Rectangle" fill="#FFFFFF" fill-rule="nonzero"></path>
    </g>
</svg>